<svg xmlns="http://www.w3.org/2000/svg" viewBox="0 0 24 24" fill="currentColor">
  <path d="M12 0C5.373 0 0 5.373 0 12c0 5.303 3.438 9.8 8.205 11.387.6.113.82-.26.82-.577 0-.285-.01-1.04-.015-2.04-3.338.726-4.042-1.61-4.042-1.61-.546-1.387-1.333-1.756-1.333-1.756-1.09-.745.083-.73.083-.73 1.205.085 1.84 1.237 1.84 1.237 1.07 1.834 2.807 1.304 3.492.997.108-.775.418-1.305.762-1.605-2.665-.305-5.467-1.332-5.467-5.931 0-1.31.468-2.38 1.235-3.22-.123-.303-.536-1.523.117-3.176 0 0 1.008-.322 3.3 1.23.957-.266 1.983-.399 3.003-.404 1.02.005 2.047.138 3.006.404 2.288-1.552 3.294-1.23 3.294-1.23.655 1.653.243 2.873.12 3.176.77.84 1.233 1.91 1.233 3.22 0 4.61-2.807 5.624-5.48 5.921.43.372.815 1.103.815 2.222 0 1.606-.015 2.896-.015 3.286 0 .32.216.694.825.576C20.565 21.796 24 17.297 24 12c0-6.627-5.373-12-12-12z"></path>
</svg>
