<svg xmlns="http://www.w3.org/2000/svg" viewBox="0 0 496 512">
  <path fill="currentColor" d="M248 8C111 8 0 119 0 256S111 504 248 504 496 393 496 256 385 8 248 8zM363 176.7c-3.7 39.2-19.9 134.4-28.1 178.3-3.5 18.6-10.3 24.8-16.9 25.4-14.4 1.3-25.3-9.5-39.3-18.7-21.8-14.3-34.2-23.2-55.3-37.2-24.5-16.1-8.6-25 5.3-39.5 3.7-3.8 67.1-61.5 68.3-66.7.2-.7.1-3.1-1.2-4.4s-3.2-.8-4.6-.5q-2.9.7-92.2 61c-8.7 6-16.6 8.9-23.7 8.7-7.8-.2-22.8-4.4-34-8-13.7-4.4-24.6-6.7-23.7-14.1q.7-5.8 19.7-11.8 115.6-50.3 153.4-66.5c73.1-30.4 88.3-35.7 98.2-35.9 2.2 0 7 .5 10.1 3.1 2.6 2.2 3.3 5.1 3.7 7.2-.1 1.8.2 5.5-.3 8.5z"/>
</svg>
